<svg width="96" height="96" xmlns="http://www.w3.org/2000/svg" xmlns:xlink="http://www.w3.org/1999/xlink" xml:space="preserve" overflow="hidden"><g transform="translate(-592 -312)"><path d="M665 328.978 655 328.978 655 337.846 640 323.6 598.567 362.958 605.056 369.446 610 364.764 610 396.976 635 396.986 635 371.994 645 371.994 645 396.994 670 397 670 364.722 674.969 369.422 681.433 362.959 665 347.346ZM657 330.978 663 330.978 663 345.446 657 339.746ZM668 395 647 394.991 647 369.991 633 369.991 633 394.985 612 394.977 612 362.87 640 336.354 668 362.831ZM605.093 366.656 601.433 363 640 326.356 678.567 363 674.93 366.632 640 333.6Z"/><path d="M616 381.978 628 381.978 628 369.978 616 369.978ZM618 371.978 626 371.978 626 379.978 618 379.978Z"/><path d="M664 369.978 652 369.978 652 381.978 664 381.978ZM662 379.978 654 379.978 654 371.978 662 371.978Z"/></g></svg>